<svg width="48" height="40" viewBox="0 0 48 40" fill="none" xmlns="http://www.w3.org/2000/svg">
<path d="M31.5096 0.535645L39.0196 12.8772H47.023V17.3151H44.2944L42.5245 37.4695C42.4758 38.0239 42.2094 38.5408 41.7781 38.9177C41.3468 39.2946 40.782 39.5039 40.1957 39.5042H7.08803C6.50134 39.5045 5.93599 39.2954 5.50417 38.9185C5.07235 38.5415 4.80563 38.0243 4.75693 37.4695L2.98698 17.3151H0.260742V12.8772H8.26177L15.7718 0.535645L19.8214 2.75456L13.6628 12.8772H33.6186L27.4624 2.75456L31.512 0.535645H31.5096ZM39.5995 17.3151H7.68191L9.24144 35.0664H38.0447L39.6042 17.3151H39.5995ZM25.98 21.7529V30.6286H21.3038V21.7529H25.98ZM16.6275 21.7529V30.6286H11.9513V21.7529H16.6275ZM35.3324 21.7529V30.6286H30.6562V21.7529H35.3324Z" fill="white"/>
</svg>
