<svg width="94" height="79" viewBox="0 0 94 79" fill="none" xmlns="http://www.w3.org/2000/svg">
<rect x="0.916992" width="92.4916" height="78.8453" rx="15.1626" fill="#9758A6"/>
<path d="M55.5096 17.5356L63.0196 29.8772H71.023V34.3151H68.2944L66.5245 54.4695C66.4758 55.0239 66.2094 55.5408 65.7781 55.9177C65.3468 56.2946 64.782 56.5039 64.1957 56.5042H31.088C30.5013 56.5045 29.936 56.2954 29.5042 55.9185C29.0724 55.5415 28.8056 55.0243 28.7569 54.4695L26.987 34.3151H24.2607V29.8772H32.2618L39.7718 17.5356L43.8214 19.7546L37.6628 29.8772H57.6186L51.4624 19.7546L55.512 17.5356H55.5096ZM63.5995 34.3151H31.6819L33.2414 52.0664H62.0447L63.6042 34.3151H63.5995ZM49.98 38.7529V47.6286H45.3038V38.7529H49.98ZM40.6275 38.7529V47.6286H35.9513V38.7529H40.6275ZM59.3324 38.7529V47.6286H54.6562V38.7529H59.3324Z" fill="white"/>
</svg>
